<?xml version="1.0" encoding="utf-8"?>
<!-- Generator: Adobe Illustrator 19.1.1, SVG Export Plug-In . SVG Version: 6.00 Build 0)  -->
<svg version="1.1" id="Layer_1" xmlns="http://www.w3.org/2000/svg" xmlns:xlink="http://www.w3.org/1999/xlink" x="0px" y="0px"
	 viewBox="0 0 198 68" style="enable-background:new 0 0 198 68;" xml:space="preserve">
<style type="text/css">
	.st0{fill:#FFFFFF;}
	.st1{fill:#FAD571;}
</style>
<g>
	<g>
		<path class="st0" d="M52.3,49.4c0.3,0,0.5,0.1,0.7,0.3c0.2,0.2,0.3,0.4,0.3,0.7s-0.1,0.5-0.3,0.7c-1.3,1.1-2.7,1.7-4.5,1.7
			c-1.9,0-3.5-0.7-4.8-2.1c-1.3-1.4-2-3.1-2-5c0-2,0.7-3.6,2-5c1.3-1.4,2.9-2.1,4.8-2.1s3.5,0.7,4.8,2.1c1.3,1.4,2,3.1,2,5
			c0,0.3-0.1,0.5-0.3,0.7c-0.2,0.2-0.4,0.3-0.7,0.3H43.8c0.2,1,0.6,1.8,1.3,2.6c1,1,2.1,1.5,3.5,1.5c1.2,0,2.3-0.4,3.1-1.2
			C51.9,49.5,52.1,49.4,52.3,49.4z M53.4,44.7c-0.2-1-0.6-1.8-1.3-2.6c-1-1-2.1-1.5-3.5-1.5s-2.5,0.5-3.5,1.5
			c-0.7,0.7-1.2,1.6-1.3,2.6H53.4z"/>
		<path class="st0" d="M57.3,33.6c0-0.3,0.1-0.5,0.3-0.7c0.2-0.2,0.4-0.3,0.7-0.3c0.3,0,0.5,0.1,0.7,0.3c0.2,0.2,0.3,0.4,0.3,0.7
			v17.2h1c0.3,0,0.5,0.1,0.7,0.3c0.2,0.2,0.3,0.4,0.3,0.7c0,0.3-0.1,0.5-0.3,0.7c-0.2,0.2-0.4,0.3-0.7,0.3h-2
			c-0.3,0-0.5-0.1-0.7-0.3c-0.2-0.2-0.3-0.4-0.3-0.7V33.6z"/>
		<path class="st0" d="M73.8,49.4c0.3,0,0.5,0.1,0.7,0.3c0.2,0.2,0.3,0.4,0.3,0.7s-0.1,0.5-0.3,0.7c-1.3,1.1-2.7,1.7-4.5,1.7
			c-1.9,0-3.5-0.7-4.8-2.1c-1.3-1.4-2-3.1-2-5c0-2,0.7-3.6,2-5c1.3-1.4,2.9-2.1,4.8-2.1c1.9,0,3.5,0.7,4.8,2.1c1.3,1.4,2,3.1,2,5
			c0,0.3-0.1,0.5-0.3,0.7c-0.2,0.2-0.4,0.3-0.7,0.3H65.2c0.2,1,0.6,1.8,1.3,2.6c1,1,2.1,1.5,3.5,1.5c1.2,0,2.3-0.4,3.1-1.2
			C73.4,49.5,73.6,49.4,73.8,49.4z M74.8,44.7c-0.2-1-0.6-1.8-1.3-2.6c-1-1-2.1-1.5-3.5-1.5s-2.5,0.5-3.5,1.5
			c-0.7,0.7-1.2,1.6-1.3,2.6H74.8z"/>
		<path class="st0" d="M80.8,40.8C80.8,40.8,80.8,40.8,80.8,40.8c1.4-1.4,3-2.1,4.9-2.1c1.9,0,3.5,0.7,4.8,2.1c1.3,1.4,2,3.1,2,5
			c0,2-0.7,3.6-2,5c-1.3,1.4-2.9,2.1-4.8,2.1c-1.9,0-3.5-0.7-4.8-2.1c-1.3-1.4-2-3.1-2-5V33.6c0-0.3,0.1-0.5,0.3-0.7
			c0.2-0.2,0.4-0.3,0.7-0.3c0.3,0,0.5,0.1,0.7,0.3c0.2,0.2,0.3,0.4,0.3,0.7V40.8z M85.6,50.8c1.3,0,2.5-0.5,3.5-1.5
			c1-1,1.4-2.2,1.4-3.6c0-1.4-0.5-2.6-1.4-3.6c-1-1-2.1-1.5-3.5-1.5s-2.5,0.5-3.5,1.5c-1,1-1.4,2.2-1.4,3.6c0,1.4,0.5,2.6,1.4,3.6
			C83.1,50.3,84.3,50.8,85.6,50.8z"/>
		<path class="st0" d="M94.4,39.7c0-0.3,0.1-0.5,0.3-0.7c0.2-0.2,0.4-0.3,0.7-0.3c0.3,0,0.5,0.1,0.7,0.3c0.2,0.2,0.3,0.4,0.3,0.7
			v1.1c1.4-1.4,3-2.1,4.9-2.1c1,0,1.8,0.2,2.6,0.5c0.1,0.1,0.3,0.1,0.4,0.3c0.2,0.2,0.3,0.4,0.3,0.7c0,0.3-0.1,0.5-0.3,0.7
			c-0.2,0.2-0.4,0.3-0.7,0.3c-0.2,0-0.3,0-0.4-0.1c-0.6-0.3-1.2-0.4-1.9-0.4c-1.3,0-2.5,0.5-3.5,1.5c-1,1-1.4,2.2-1.4,3.6v6.1
			c0,0.3-0.1,0.5-0.3,0.7c-0.2,0.2-0.4,0.3-0.7,0.3c-0.3,0-0.5-0.1-0.7-0.3c-0.2-0.2-0.3-0.4-0.3-0.7V39.7z"/>
		<path class="st0" d="M117.8,50.7c-1.4,1.4-3,2.1-4.9,2.1c-1.9,0-3.5-0.7-4.8-2.1c-1.3-1.4-2-3.1-2-5c0-2,0.7-3.6,2-5
			c1.3-1.4,2.9-2.1,4.8-2.1c1.9,0,3.5,0.7,4.8,2.1c1.3,1.4,2,3.1,2,5v6.1c0,0.3-0.1,0.5-0.3,0.7c-0.2,0.2-0.4,0.3-0.7,0.3
			c-0.3,0-0.5-0.1-0.7-0.3c-0.2-0.2-0.3-0.4-0.3-0.7V50.7z M113,40.7c-1.4,0-2.5,0.5-3.5,1.5s-1.4,2.2-1.4,3.6
			c0,1.4,0.5,2.6,1.4,3.6c1,1,2.1,1.5,3.5,1.5c1.3,0,2.5-0.5,3.5-1.5c1-1,1.4-2.2,1.4-3.6c0-1.4-0.5-2.6-1.4-3.6
			C115.5,41.2,114.3,40.7,113,40.7z"/>
		<path class="st0" d="M128.6,50.8c0.3,0,0.5,0.1,0.7,0.3c0.2,0.2,0.3,0.4,0.3,0.7c0,0.3-0.1,0.5-0.3,0.7c-0.2,0.2-0.4,0.3-0.7,0.3
			c-3.3,0-4.9-1.7-4.9-5.1v-7.1h-1c-0.3,0-0.5-0.1-0.7-0.3c-0.2-0.2-0.3-0.4-0.3-0.7c0-0.3,0.1-0.5,0.3-0.7c0.2-0.2,0.4-0.3,0.7-0.3
			h1v-5.1c0-0.3,0.1-0.5,0.3-0.7c0.2-0.2,0.4-0.3,0.7-0.3c0.3,0,0.5,0.1,0.7,0.3c0.2,0.2,0.3,0.4,0.3,0.7v5.1h2
			c0.3,0,0.5,0.1,0.7,0.3c0.2,0.2,0.3,0.4,0.3,0.7c0,0.3-0.1,0.5-0.3,0.7c-0.2,0.2-0.4,0.3-0.7,0.3h-2v7.1
			C125.6,49.8,126.6,50.8,128.6,50.8z"/>
		<path class="st0" d="M141.4,49.4c0.3,0,0.5,0.1,0.7,0.3c0.2,0.2,0.3,0.4,0.3,0.7s-0.1,0.5-0.3,0.7c-1.3,1.1-2.7,1.7-4.5,1.7
			c-1.9,0-3.5-0.7-4.8-2.1c-1.3-1.4-2-3.1-2-5c0-2,0.7-3.6,2-5c1.3-1.4,2.9-2.1,4.8-2.1c1.9,0,3.5,0.7,4.8,2.1c1.3,1.4,2,3.1,2,5
			c0,0.3-0.1,0.5-0.3,0.7c-0.2,0.2-0.4,0.3-0.7,0.3h-10.6c0.2,1,0.6,1.8,1.3,2.6c1,1,2.1,1.5,3.5,1.5c1.2,0,2.3-0.4,3.1-1.2
			C140.9,49.5,141.1,49.4,141.4,49.4z M142.4,44.7c-0.2-1-0.6-1.8-1.3-2.6c-1-1-2.1-1.5-3.5-1.5c-1.4,0-2.5,0.5-3.5,1.5
			c-0.7,0.7-1.2,1.6-1.3,2.6H142.4z"/>
	</g>
	<path class="st1" d="M157.8,37.6l-6.8,7.9l0.2-1c0.7,2.2,1.8,4.4,3.1,6.3c1.3,2,2.9,3.7,4.7,5.2c1.8,1.5,3.9,2.8,6,3.7
		c2.2,0.9,4.5,1.6,6.9,1.8c2.4,0.3,4.8,0.2,7.2-0.2c2.4-0.4,4.7-1.2,6.8-2.3c2.2-1.1,4.2-2.5,5.9-4.2c1.8-1.7,3.3-3.6,4.6-5.7
		c-1.2,2.1-2.7,4.1-4.4,5.8c-1.7,1.7-3.7,3.2-5.9,4.4c-2.2,1.2-4.5,2.1-6.9,2.6c-2.4,0.5-4.9,0.7-7.4,0.5c-2.5-0.2-4.9-0.8-7.3-1.7
		c-2.3-0.9-4.5-2.2-6.5-3.7c-2-1.5-3.7-3.4-5.2-5.4c-1.5-2-2.7-4.3-3.6-6.7c-0.1-0.3,0-0.7,0.2-0.9l0,0l6.6-8.1
		c0.4-0.5,1.1-0.6,1.6-0.2C158.1,36.4,158.2,37.1,157.8,37.6C157.8,37.6,157.8,37.6,157.8,37.6z"/>
	<path class="st1" d="M148,52.8L148,52.8c-0.7,0-1.2-0.6-1.2-1.2V33.9c0-0.7,0.6-1.2,1.2-1.2l0,0c0.7,0,1.2,0.6,1.2,1.2v17.7
		C149.2,52.3,148.7,52.8,148,52.8z"/>
	<g>
		<path class="st1" d="M44.4,62.5c-7.3-6.6-11.1-16.2-13.1-25.5c-1.7-8.1,0.3-16.7,2.5-24.3c0.6-2.2,1.3-4.3,2.1-6.4
			c0.2-0.6,0-1.5-0.5-1.9c-1.2-0.9-2.7,1.1-2.9,1.7c-2.7,7.7-4.9,15.8-4.3,24.3c0.7,8.9,4,18.2,9.3,25.6c1.9,2.6,4.1,4.8,6.6,6.8
			C44.3,63,44.6,62.7,44.4,62.5L44.4,62.5z"/>
		<path class="st1" d="M44.2,63.9c-1.6-0.9-3.1-2.2-4.6-3.3c-1.7-1.2-3.4-2.4-5-3.7c-3-2.4-5.9-5-8.6-7.8c-2.6-2.7-5-5.5-7.5-8.3
			c-2.6-3-5-6.2-7.6-9.1c-1.5-1.7-4.2,1-2.5,2.4c0.6,0.5,1.3,0.9,2,1.3c0.8,0.6,1.9-0.4,1.6-1.3c-0.2-0.6-0.4-1.2-0.7-1.8
			c-1.1,0.4-2.1,0.9-3.2,1.3c4.7,6.2,10.2,12,16.1,17.1c2.9,2.5,5.8,4.9,9,7.1c1.6,1.1,3.3,2.2,5,3.2C40.2,62.2,42.3,62.9,44.2,63.9
			C44.2,63.9,44.2,63.9,44.2,63.9L44.2,63.9z"/>
		<path class="st0" d="M34.8,54.6c-1.3-2-2.6-3.8-3.8-5.9c-1.2-2.1-2.1-4.3-2.9-6.7c-0.8-2.3-2.1-8-2.5-10.6
			c-0.4-2.7-0.4-5.4-0.3-8.1c0-1.6-2-1.2-1.9,0.4c0,0.5,0,0.9,0,1.4c0.1,1,1.1,1.1,1.4,0.2c0.1-0.4,0.2-0.9,0.4-1.3
			c-0.6-0.2-1.2-0.4-1.8-0.6c-0.4,5.5,1.4,14.5,3.3,19.1c0.9,2.4,2.2,4.6,3.5,6.7c1.3,2.1,2.8,4.1,4.5,5.6
			C34.7,54.8,34.8,54.7,34.8,54.6L34.8,54.6z"/>
		<path class="st0" d="M21.6,43c-0.6-0.7-1-1.6-1.5-2.4c-0.5-0.9-1.1-1.7-1.6-2.6c-0.9-1.7-1.7-3.4-2.4-5.2
			c-0.7-1.7-1.2-3.5-1.8-5.2c-0.6-1.9-1.1-3.8-1.7-5.6c-0.4-1.1-2.1-0.3-1.6,0.6c0.2,0.4,0.4,0.6,0.6,1c0.3,0.4,0.9,0.2,1-0.3
			c0-0.3,0-0.6,0-0.9c-0.6,0-1.1,0-1.7,0c1,3.7,2.4,7.4,4.1,10.8c0.8,1.7,1.7,3.3,2.7,4.9c0.5,0.8,1.1,1.6,1.6,2.4
			C20.1,41.4,20.9,42.1,21.6,43C21.6,43,21.6,43,21.6,43L21.6,43z"/>
		<path class="st0" d="M27.4,59.3c-1.5-1.9-3.9-2.8-6.3-2.9c-0.9,0-1.8,0.2-2.7,0.4c-0.8,0.3-1.7,1-2.6,1c-1-0.1-1.7-1-1.3-2
			c1-2.3,5.2-1.7,7-1.2c2.6,0.6,4.8,2.2,6.2,4.5C27.9,59.3,27.5,59.5,27.4,59.3L27.4,59.3z"/>
		<circle class="st0" cx="41.2" cy="6.4" r="1"/>
		<circle class="st0" cx="15.2" cy="51.4" r="1"/>
		<circle class="st1" cx="16.4" cy="25.1" r="0.6"/>
		<circle class="st1" cx="9.4" cy="29.5" r="0.6"/>
		<circle class="st0" cx="26.7" cy="22.2" r="0.3"/>
		<circle class="st0" cx="26.7" cy="14.6" r="0.3"/>
		<circle class="st0" cx="4.6" cy="26.8" r="0.3"/>
		<circle class="st0" cx="1.9" cy="29.4" r="0.3"/>
		<circle class="st0" cx="19.1" cy="51.9" r="0.3"/>
		<circle class="st0" cx="45" cy="1.7" r="0.3"/>
		<polygon class="st1" points="44.2,6.7 46.5,6.9 44.7,8.3 46.6,7.1 46,9.3 46.8,7.1 47.6,9.3 47.1,7.1 49,8.4 47.2,6.9 49.5,6.8 
			47.2,6.7 49,5.2 47.1,6.5 47.7,4.3 46.9,6.4 46.1,4.2 46.6,6.5 44.7,5.2 46.5,6.6 		"/>
		<polygon class="st0" points="14,17.2 16.3,17.3 14.4,18.8 16.4,17.5 15.7,19.7 16.6,17.6 17.4,19.8 16.8,17.6 18.7,18.8 17,17.4 
			19.3,17.3 17,17.1 18.8,15.7 16.8,16.9 17.5,14.7 16.6,16.9 15.9,14.7 16.4,16.9 14.5,15.6 16.3,17.1 		"/>
	</g>
	<path class="st1" d="M72.3,56.2c0,0-0.2,0.3-0.5,1c-0.4,0.6-0.9,1.6-1.8,2.6c-0.9,1.1-2.1,2.3-3.7,3.4c-1.6,1.1-3.7,2.1-6.1,2.8
		c-1.2,0.3-2.5,0.5-3.9,0.6c-0.2,0-0.4,0-0.6,0l-0.5,0c-0.3,0-0.6,0-0.9,0c-0.7,0-1.5-0.1-2.2-0.2c-2.9-0.4-5.9-1.6-8.6-3.5
		c-0.3-0.2-0.7-0.5-1-0.7c-0.3-0.3-0.6-0.5-0.9-0.8c-0.6-0.5-1.2-1.1-1.8-1.8c-0.3-0.3-0.6-0.6-0.8-1c-0.3-0.3-0.5-0.7-0.8-1
		c-0.2-0.4-0.5-0.7-0.7-1.1c-0.2-0.4-0.5-0.7-0.6-1.1c-1.6-3.1-2.5-6.6-2.5-10.1c0-0.1,0,0.1,0-0.2l0,0l0-0.1l0-0.1l0-0.3l0-0.6
		l0-0.6l0-0.3l0.1-0.3l0.2-1.4c0-0.2,0.1-0.5,0.1-0.7l0.2-0.6l0.4-1.3c0.1-0.4,0.3-0.8,0.5-1.2c0.3-0.8,0.7-1.6,1.1-2.4
		c0.2-0.4,0.4-0.7,0.7-1.1c0.2-0.4,0.5-0.7,0.7-1.1c0.3-0.3,0.5-0.7,0.8-1c0.3-0.3,0.5-0.7,0.8-1c0.6-0.6,1.2-1.2,1.8-1.7
		c0.3-0.3,0.6-0.5,1-0.8c0.3-0.2,0.7-0.5,1-0.7c2.7-1.8,5.7-2.9,8.6-3.3c0.7-0.1,1.5-0.1,2.2-0.2c0.7,0,1.4,0,2.1,0l0,0
		c0.1,0,0.1,0,0.1,0l0.1,0l0.1,0l0.2,0c0.2,0,0.3,0,0.5,0.1c0.3,0,0.6,0.1,1,0.1c0.7,0.1,1.3,0.3,1.9,0.4c2.4,0.7,4.5,1.7,6.1,2.9
		c1.6,1.1,2.8,2.4,3.7,3.5c0.9,1.1,1.4,2,1.8,2.7c0.3,0.7,0.5,1,0.5,1l0,0c0,0.1,0,0.2-0.1,0.2c-0.1,0-0.2,0-0.2-0.1
		c0,0-0.2-0.3-0.6-0.9c-0.2-0.3-0.5-0.6-0.8-1c-0.3-0.4-0.7-0.8-1.2-1.3c-0.9-0.9-2.2-1.9-3.8-2.8c-0.4-0.2-0.8-0.4-1.3-0.7
		c-0.2-0.1-0.4-0.2-0.7-0.3c-0.2-0.1-0.5-0.2-0.7-0.3c-1-0.4-2-0.7-3.1-0.9c-1.1-0.2-2.3-0.3-3.5-0.4c-0.6,0-1.2,0.1-1.8,0.1
		c-0.6,0.1-1.2,0.2-1.9,0.3c-2.5,0.5-5.1,1.6-7.3,3.2c-0.3,0.2-0.6,0.4-0.8,0.6c-0.3,0.2-0.5,0.5-0.8,0.7c-0.6,0.5-1,1-1.5,1.5
		c-0.3,0.3-0.5,0.6-0.7,0.8c-0.2,0.3-0.4,0.6-0.7,0.9c-0.2,0.3-0.4,0.6-0.6,0.9c-0.2,0.3-0.4,0.6-0.5,1c-0.3,0.7-0.7,1.3-0.9,2
		c-0.1,0.3-0.3,0.7-0.4,1l-0.3,1.1l-0.1,0.5c0,0.2-0.1,0.4-0.1,0.5l-0.2,1.1l0,0.3l0,0.3l0,0.6l-0.1,1.1c0,3,0.7,6,2,8.6
		c0.1,0.3,0.3,0.6,0.5,1c0.2,0.3,0.4,0.6,0.6,0.9c0.2,0.3,0.4,0.6,0.6,0.9c0.2,0.3,0.4,0.6,0.7,0.9c0.5,0.5,0.9,1.1,1.5,1.6
		c0.3,0.2,0.5,0.5,0.8,0.7c0.3,0.2,0.6,0.4,0.8,0.6c2.2,1.7,4.8,2.8,7.3,3.3c0.6,0.1,1.2,0.2,1.9,0.3c0.6,0,1.2,0.1,1.9,0.1
		c1.2,0,2.4-0.1,3.5-0.3c1.1-0.2,2.1-0.5,3.1-0.8c0.5-0.2,0.9-0.4,1.4-0.6c0.4-0.2,0.9-0.4,1.3-0.6c1.6-0.9,2.9-1.9,3.8-2.8
		c0.5-0.4,0.9-0.9,1.2-1.2c0.3-0.4,0.6-0.7,0.8-1C71.8,56.3,72,56,72,56c0.1-0.1,0.2-0.1,0.2,0C72.3,56,72.3,56.1,72.3,56.2
		L72.3,56.2z"/>
	<g>
		<g>
			<path class="st0" d="M167.5,50.7c-1.4,1.4-3,2.1-4.9,2.1c-1.9,0-3.5-0.7-4.8-2.1c-1.3-1.4-2-3.1-2-5c0-2,0.7-3.6,2-5
				c1.3-1.4,2.9-2.1,4.8-2.1c1.9,0,3.5,0.7,4.8,2.1c1.3,1.4,2,3.1,2,5v6.1c0,0.3-0.1,0.5-0.3,0.7c-0.2,0.2-0.4,0.3-0.7,0.3
				c-0.3,0-0.5-0.1-0.7-0.3c-0.2-0.2-0.3-0.4-0.3-0.7V50.7z M162.7,40.7c-1.4,0-2.5,0.5-3.5,1.5c-1,1-1.4,2.2-1.4,3.6
				c0,1.4,0.5,2.6,1.4,3.6c1,1,2.1,1.5,3.5,1.5c1.3,0,2.5-0.5,3.5-1.5c1-1,1.4-2.2,1.4-3.6c0-1.4-0.5-2.6-1.4-3.6
				C165.2,41.2,164,40.7,162.7,40.7z"/>
			<path class="st0" d="M172.1,39.7c0-0.3,0.1-0.5,0.3-0.7c0.2-0.2,0.4-0.3,0.7-0.3c0.3,0,0.5,0.1,0.7,0.3c0.2,0.2,0.3,0.4,0.3,0.7
				v1.1c1.4-1.4,3-2.1,4.9-2.1c1,0,1.8,0.2,2.6,0.5c0.1,0.1,0.3,0.1,0.4,0.3c0.2,0.2,0.3,0.4,0.3,0.7s-0.1,0.5-0.3,0.7
				c-0.2,0.2-0.4,0.3-0.7,0.3c-0.2,0-0.3,0-0.4-0.1c-0.6-0.3-1.2-0.4-1.9-0.4c-1.4,0-2.5,0.5-3.5,1.5c-1,1-1.4,2.2-1.4,3.6v6.1
				c0,0.3-0.1,0.5-0.3,0.7c-0.2,0.2-0.4,0.3-0.7,0.3c-0.3,0-0.5-0.1-0.7-0.3c-0.2-0.2-0.3-0.4-0.3-0.7V39.7z"/>
		</g>
	</g>
	<g>
		<g>
			<path class="st0" d="M195,45.7c0,2-0.7,3.6-2,5c-1.3,1.4-2.9,2.1-4.8,2.1c-1.9,0-3.5-0.7-4.8-2.1c-1.3-1.4-2-3.1-2-5
				c0-2,0.7-3.6,2-5c1.3-1.4,2.9-2.1,4.8-2.1c1.9,0,3.5,0.7,4.8,2.1C194.4,42.1,195,43.8,195,45.7z M188.2,40.7
				c-1.4,0-2.5,0.5-3.5,1.5c-1,1-1.4,2.2-1.4,3.6c0,1.4,0.5,2.6,1.4,3.6c1,1,2.1,1.5,3.5,1.5c1.3,0,2.5-0.5,3.5-1.5
				c1-1,1.4-2.2,1.4-3.6c0-1.4-0.5-2.6-1.4-3.6C190.7,41.2,189.5,40.7,188.2,40.7z"/>
		</g>
	</g>
</g>
</svg>
